<svg width="23" height="30" viewBox="0 0 23 30" fill="none" xmlns="http://www.w3.org/2000/svg">
<path fill-rule="evenodd" clip-rule="evenodd" d="M23 7.35928C23 5.57601 21.4698 4.11666 19.5996 4.11666H3.40029C1.53006 4.11666 0 5.57601 0 7.35968L23 7.35928ZM21.9814 7.89684V27.1435C21.9814 28.7143 20.6337 30 18.9866 30H4.01383C2.36734 30 1.01867 28.715 1.01867 27.1435V7.89684H21.9814ZM5.06179 10.4398C4.69274 10.4398 4.39101 10.7274 4.39101 11.0795V26.8177C4.39101 27.1698 4.69274 27.4575 5.06179 27.4575C5.43074 27.4575 5.73248 27.1698 5.73248 26.8177V11.0795C5.73248 10.7274 5.43074 10.4398 5.06179 10.4398ZM17.9389 10.4398C17.5694 10.4398 17.2681 10.7274 17.2681 11.0795V26.8177C17.2681 27.1698 17.5694 27.4575 17.9389 27.4575C18.3077 27.4575 18.6097 27.1698 18.6097 26.8177V11.0795C18.6097 10.7274 18.3077 10.4398 17.9389 10.4398ZM13.6464 10.4398C13.2776 10.4398 12.9756 10.7274 12.9756 11.0795V26.8177C12.9756 27.1698 13.2776 27.4575 13.6464 27.4575C14.0151 27.4575 14.3172 27.1698 14.3172 26.8177V11.0795C14.3172 10.7274 14.0151 10.4398 13.6464 10.4398ZM9.35404 10.4398C8.98508 10.4398 8.68324 10.7274 8.68324 11.0795V26.8177C8.68324 27.1698 8.98508 27.4575 9.35404 27.4575C9.72309 27.4575 10.0248 27.1698 10.0248 26.8177V11.0795C10.0248 10.7274 9.72309 10.4398 9.35404 10.4398ZM15.729 2.79947C15.729 1.2572 14.4104 0 12.7936 0H10.2067C8.58993 0 7.27127 1.25754 7.27127 2.79947V3.57911H8.44318V2.79947C8.44318 1.87434 9.23689 1.11763 10.2067 1.11763H12.7936C13.7636 1.11763 14.5571 1.87434 14.5571 2.79947V3.57911H15.729V2.79947H15.729Z" fill="#5A7E8D"/>
</svg>
