<svg width="37" height="37" viewBox="0 0 37 37" fill="none" xmlns="http://www.w3.org/2000/svg">
<g clip-path="url(#clip0_336_2)">
<path fill-rule="evenodd" clip-rule="evenodd" d="M7.75046 36.9851L14.3682 33.763L7.46206 29.6345L7.75046 36.9851Z" fill="#5A7E8D"/>
<path fill-rule="evenodd" clip-rule="evenodd" d="M7.75044 36.9851L9.27763 36.2415L7.68388 35.2888L7.75044 36.9851Z" fill="#5A7E8D"/>
<path d="M14.392 33.7769L27.1781 12.4185L20.2249 8.26187L7.43878 29.6203L14.392 33.7769Z" fill="#5A7E8D"/>
<path d="M12.088 32.3995L24.8741 11.0411L22.5291 9.63923L9.74295 30.9976L12.088 32.3995Z" fill="#5A7E8D"/>
<path d="M14.3921 33.7768L27.1782 12.4185L24.8332 11.0166L12.0471 32.375L14.3921 33.7768Z" fill="#5A7E8D"/>
<path d="M9.78379 31.0221L22.5699 9.66362L20.2249 8.26178L7.43877 29.6203L9.78379 31.0221Z" fill="#5A7E8D"/>
<path d="M20.2023 8.24828L27.1782 12.4185L28.7209 9.84143L21.745 5.67125L20.2023 8.24828Z" fill="#5A7E8D"/>
<path fill-rule="evenodd" clip-rule="evenodd" d="M21.6592 5.81391L28.6353 9.98413L30.2699 7.2536C31.0205 5.99966 30.6084 4.36021 29.354 3.61023L26.9395 2.16688C25.685 1.417 24.0446 1.8294 23.2939 3.08335L21.6592 5.81391Z" fill="#5A7E8D"/>
</g>
<defs>
<clipPath id="clip0_336_2">
<rect width="29.864" height="29.864" fill="white" transform="translate(0.469421 8.02234) rotate(-14.1113)"/>
</clipPath>
</defs>
</svg>
