<svg width="29" height="29" viewBox="0 0 29 29" fill="none" xmlns="http://www.w3.org/2000/svg">
<g clip-path="url(#clip0_317_2)">
<path d="M11.5222 23.0442C5.16877 23.0442 0 17.8754 0 11.5221C0 5.1688 5.16877 0 11.5222 0C17.8755 0 23.0443 5.1688 23.0443 11.5221C23.0443 17.8754 17.8756 23.0442 11.5222 23.0442ZM11.5222 2.5616C6.58128 2.5616 2.56162 6.58124 2.56162 11.5221C2.56162 16.4629 6.58128 20.4826 11.5222 20.4826C16.463 20.4826 20.4827 16.4629 20.4827 11.5221C20.4827 6.58124 16.463 2.5616 11.5222 2.5616Z" fill="#75909E"/>
<path d="M28.3988 28.398C27.9966 28.8002 27.4702 29 26.9464 29C26.3789 29 25.8128 28.7669 25.4056 28.3045L18.6467 20.571C19.3614 20.0075 20.0082 19.3607 20.5705 18.646L28.3053 25.4061C29.1929 26.1899 29.2364 27.5604 28.3988 28.398Z" fill="#75909E"/>
</g>
<defs>
<clipPath id="clip0_317_2">
<rect width="29" height="29" fill="white"/>
</clipPath>
</defs>
</svg>
